<svg width="290" height="40" viewBox="0 0 290 40" fill="none" xmlns="http://www.w3.org/2000/svg">
<path d="M136.667 32.4998C134.833 32.4998 133.333 33.9998 133.333 35.8332H156.667C156.667 33.9998 155.167 32.4998 153.333 32.4998H146.667V29.1665H151.667C153.5 29.1665 155 27.6665 155 25.8332H141.667C138.9 25.8332 136.667 23.5998 136.667 20.8332C136.667 19.0165 137.65 17.4332 139.117 16.5498C139.8 17.5332 140.883 18.2165 142.167 18.3165C143.333 18.4165 144.433 17.9998 145.25 17.2832L146.233 19.9665L147.8 19.3998L148.367 20.9665L151.5 19.8332L150.933 18.2665L152.5 17.6998L147.933 5.1665L146.367 5.73317L145.8 4.1665L142.667 5.29984L143.233 6.8665L141.667 7.44984L142.6 10.0332C140.65 9.9665 138.95 11.2832 138.467 13.1332C135.45 14.3998 133.333 17.3665 133.333 20.8332C133.333 25.4332 137.067 29.1665 141.667 29.1665V32.4998H136.667ZM146.433 8.3665L149.283 16.1998L147.717 16.7665L144.867 8.93317L146.433 8.3665ZM142.5 12.4998C143.417 12.4998 144.167 13.2498 144.167 14.1665C144.167 15.0832 143.417 15.8332 142.5 15.8332C141.583 15.8332 140.833 15.0832 140.833 14.1665C140.833 13.2498 141.583 12.4998 142.5 12.4998Z" fill="#111111"/>
</svg>
