<svg width="290" height="40" viewBox="0 0 290 40" fill="none" xmlns="http://www.w3.org/2000/svg">
<path d="M145 33.3332H128.333V29.9998H137.917C136.7 25.3165 133.017 21.6498 128.333 20.4332C129.4 20.1665 130.517 19.9998 131.667 19.9998C139.033 19.9998 145 25.9665 145 33.3332ZM161.667 20.4332C160.6 20.1665 159.483 19.9998 158.333 19.9998C153.45 19.9998 149.2 22.6332 146.867 26.5498C147.35 27.6498 147.75 28.7998 147.983 29.9998C148.2 31.0832 148.317 32.1998 148.317 33.3332H161.65V29.9998H152.067C153.3 25.3165 156.983 21.6498 161.667 20.4332ZM151.067 18.3665C152.367 14.8832 154.783 11.9665 157.883 10.0332C150.733 10.2665 145 16.1165 145 23.3332C145 23.3498 145 23.3665 145 23.3665C146.583 21.2498 148.667 19.5332 151.067 18.3665ZM144.033 14.7498C142.633 11.0998 139.8 8.14984 136.167 6.6665C138.567 9.7665 140 13.6332 140 17.8498C140 18.1998 139.95 18.5332 139.933 18.8665C140.65 19.2665 141.317 19.7332 141.967 20.2332C142.317 18.2665 143.05 16.4165 144.033 14.7498Z" fill="black"/>
</svg>
