<svg width="290" height="40" viewBox="0 0 290 40" fill="none" xmlns="http://www.w3.org/2000/svg">
<path d="M154.433 13.3249L145 3.9082L135.567 13.3249C132.967 15.9249 131.667 19.3915 131.667 22.7249C131.667 26.0582 132.967 29.5749 135.567 32.1749C138.167 34.7749 141.583 36.0915 145 36.0915C148.417 36.0915 151.833 34.7749 154.433 32.1749C157.033 29.5749 158.333 26.0582 158.333 22.7249C158.333 19.3915 157.033 15.9249 154.433 13.3249ZM135 23.3249C135.017 19.9915 136.033 17.8749 137.933 15.9915L145 8.77487L152.067 16.0749C153.967 17.9415 154.983 19.9915 155 23.3249H135Z" fill="black"/>
</svg>
